<svg width="54" height="54" viewBox="0 0 54 54" fill="none" xmlns="http://www.w3.org/2000/svg">
<path d="M52 36.8589V16.9366C51.999 16.0632 51.7418 15.2054 51.2543 14.4492C50.7667 13.6931 50.0659 13.0651 49.2222 12.6284L29.7778 2.66727C28.9332 2.23013 27.9752 2 27 2C26.0248 2 25.0668 2.23013 24.2222 2.66727L4.77778 12.6284C3.93406 13.0651 3.23328 13.6931 2.74573 14.4492C2.25817 15.2054 2.001 16.0632 2 16.9366V36.8589C2.001 37.7323 2.25817 38.5901 2.74573 39.3463C3.23328 40.1025 3.93406 40.7304 4.77778 41.1671L24.2222 51.1282C25.0668 51.5654 26.0248 51.7955 27 51.7955C27.9752 51.7955 28.9332 51.5654 29.7778 51.1282L49.2222 41.1671C50.0659 40.7304 50.7667 40.1025 51.2543 39.3463C51.7418 38.5901 51.999 37.7323 52 36.8589Z" stroke="#F8F4F4" stroke-width="3" stroke-linecap="round" stroke-linejoin="round"/>
<path d="M2.74951 14.3457L26.9995 26.9217L51.2495 14.3457" stroke="#F8F4F4" stroke-width="3" stroke-linecap="round" stroke-linejoin="round"/>
<path d="M26.9998 52.0005V26.8984" stroke="#F8F4F4" stroke-width="3" stroke-linecap="round" stroke-linejoin="round"/>
</svg>
