<svg width="50" height="50" viewBox="0 0 50 50" fill="none" xmlns="http://www.w3.org/2000/svg">
<path d="M25 30C25.4945 30 25.9778 29.8534 26.3889 29.5787C26.8 29.304 27.1205 28.9135 27.3097 28.4567C27.4989 27.9999 27.5484 27.4972 27.452 27.0123C27.3555 26.5273 27.1174 26.0819 26.7678 25.7322C26.4181 25.3826 25.9727 25.1445 25.4877 25.048C25.0028 24.9516 24.5001 25.0011 24.0433 25.1903C23.5865 25.3795 23.196 25.7 22.9213 26.1111C22.6466 26.5222 22.5 27.0055 22.5 27.5C22.5 28.163 22.7634 28.7989 23.2322 29.2678C23.7011 29.7366 24.337 30 25 30ZM37.5 30C37.9945 30 38.4778 29.8534 38.8889 29.5787C39.3 29.304 39.6205 28.9135 39.8097 28.4567C39.9989 27.9999 40.0484 27.4972 39.952 27.0123C39.8555 26.5273 39.6174 26.0819 39.2678 25.7322C38.9181 25.3826 38.4727 25.1445 37.9877 25.048C37.5028 24.9516 37.0001 25.0011 36.5433 25.1903C36.0865 25.3795 35.696 25.7 35.4213 26.1111C35.1466 26.5222 35 27.0055 35 27.5C35 28.163 35.2634 28.7989 35.7322 29.2678C36.2011 29.7366 36.837 30 37.5 30ZM25 40C25.4945 40 25.9778 39.8534 26.3889 39.5787C26.8 39.304 27.1205 38.9135 27.3097 38.4567C27.4989 37.9999 27.5484 37.4972 27.452 37.0123C27.3555 36.5273 27.1174 36.0819 26.7678 35.7322C26.4181 35.3826 25.9727 35.1445 25.4877 35.048C25.0028 34.9516 24.5001 35.0011 24.0433 35.1903C23.5865 35.3795 23.196 35.7 22.9213 36.1111C22.6466 36.5222 22.5 37.0055 22.5 37.5C22.5 38.163 22.7634 38.7989 23.2322 39.2678C23.7011 39.7366 24.337 40 25 40ZM37.5 40C37.9945 40 38.4778 39.8534 38.8889 39.5787C39.3 39.304 39.6205 38.9135 39.8097 38.4567C39.9989 37.9999 40.0484 37.4972 39.952 37.0123C39.8555 36.5273 39.6174 36.0819 39.2678 35.7322C38.9181 35.3826 38.4727 35.1445 37.9877 35.048C37.5028 34.9516 37.0001 35.0011 36.5433 35.1903C36.0865 35.3795 35.696 35.7 35.4213 36.1111C35.1466 36.5222 35 37.0055 35 37.5C35 38.163 35.2634 38.7989 35.7322 39.2678C36.2011 39.7366 36.837 40 37.5 40ZM12.5 30C12.9945 30 13.4778 29.8534 13.8889 29.5787C14.3 29.304 14.6205 28.9135 14.8097 28.4567C14.9989 27.9999 15.0484 27.4972 14.952 27.0123C14.8555 26.5273 14.6174 26.0819 14.2678 25.7322C13.9181 25.3826 13.4727 25.1445 12.9877 25.048C12.5028 24.9516 12.0001 25.0011 11.5433 25.1903C11.0865 25.3795 10.696 25.7 10.4213 26.1111C10.1466 26.5222 10 27.0055 10 27.5C10 28.163 10.2634 28.7989 10.7322 29.2678C11.2011 29.7366 11.837 30 12.5 30ZM42.5 5H40V2.5C40 1.83696 39.7366 1.20107 39.2678 0.732233C38.7989 0.263392 38.163 0 37.5 0C36.837 0 36.2011 0.263392 35.7322 0.732233C35.2634 1.20107 35 1.83696 35 2.5V5H15V2.5C15 1.83696 14.7366 1.20107 14.2678 0.732233C13.7989 0.263392 13.163 0 12.5 0C11.837 0 11.2011 0.263392 10.7322 0.732233C10.2634 1.20107 10 1.83696 10 2.5V5H7.5C5.51088 5 3.60322 5.79018 2.1967 7.1967C0.790177 8.60322 0 10.5109 0 12.5V42.5C0 44.4891 0.790177 46.3968 2.1967 47.8033C3.60322 49.2098 5.51088 50 7.5 50H42.5C44.4891 50 46.3968 49.2098 47.8033 47.8033C49.2098 46.3968 50 44.4891 50 42.5V12.5C50 10.5109 49.2098 8.60322 47.8033 7.1967C46.3968 5.79018 44.4891 5 42.5 5ZM45 42.5C45 43.163 44.7366 43.7989 44.2678 44.2678C43.7989 44.7366 43.163 45 42.5 45H7.5C6.83696 45 6.20107 44.7366 5.73223 44.2678C5.26339 43.7989 5 43.163 5 42.5V20H45V42.5ZM45 15H5V12.5C5 11.837 5.26339 11.2011 5.73223 10.7322C6.20107 10.2634 6.83696 10 7.5 10H42.5C43.163 10 43.7989 10.2634 44.2678 10.7322C44.7366 11.2011 45 11.837 45 12.5V15ZM12.5 40C12.9945 40 13.4778 39.8534 13.8889 39.5787C14.3 39.304 14.6205 38.9135 14.8097 38.4567C14.9989 37.9999 15.0484 37.4972 14.952 37.0123C14.8555 36.5273 14.6174 36.0819 14.2678 35.7322C13.9181 35.3826 13.4727 35.1445 12.9877 35.048C12.5028 34.9516 12.0001 35.0011 11.5433 35.1903C11.0865 35.3795 10.696 35.7 10.4213 36.1111C10.1466 36.5222 10 37.0055 10 37.5C10 38.163 10.2634 38.7989 10.7322 39.2678C11.2011 39.7366 11.837 40 12.5 40Z" fill="#FEFAFA"/>
</svg>
