<svg width="44" height="54" viewBox="0 0 44 54" fill="none" xmlns="http://www.w3.org/2000/svg">
<path d="M27 1.69043H7C5.67392 1.69043 4.40215 2.21715 3.46447 3.15472C2.52678 4.09229 2 5.36391 2 6.68983V46.6851C2 48.011 2.52678 49.2826 3.46447 50.2202C4.40215 51.1577 5.67392 51.6845 7 51.6845H37C38.3261 51.6845 39.5979 51.1577 40.5355 50.2202C41.4732 49.2826 42 48.011 42 46.6851V16.6886L27 1.69043Z" stroke="#FEF9F9" stroke-width="3" stroke-linecap="round" stroke-linejoin="round"/>
<path d="M27 1.69043V16.6886H42" stroke="#FEF9F9" stroke-width="3" stroke-linecap="round" stroke-linejoin="round"/>
<path d="M32 29.1875H12" stroke="#FEF9F9" stroke-width="3" stroke-linecap="round" stroke-linejoin="round"/>
<path d="M32 39.1855H12" stroke="#FEF9F9" stroke-width="3" stroke-linecap="round" stroke-linejoin="round"/>
<path d="M17 19.1884H14.5H12" stroke="#FEF9F9" stroke-width="3" stroke-linecap="round" stroke-linejoin="round"/>
</svg>
