<?xml version="1.0" standalone="no"?>
<!DOCTYPE svg PUBLIC "-//W3C//DTD SVG 20010904//EN"
 "http://www.w3.org/TR/2001/REC-SVG-20010904/DTD/svg10.dtd">
<svg version="1.0" xmlns="http://www.w3.org/2000/svg"
 width="300.000000pt" height="282.000000pt" viewBox="0 0 300.000000 282.000000"
 preserveAspectRatio="xMidYMid meet">

<g transform="translate(0.000000,282.000000) scale(0.100000,-0.100000)"
fill="#000000" stroke="white">
<path d="M360 2662 l155 -160 648 -1 647 -1 0 -825 0 -825 160 0 160 0 0 825
0 825 330 0 330 0 0 155 0 155 -732 0 c-403 0 -985 3 -1293 6 l-560 7 155
-161z"/>
<path d="M392 1861 c-67 -71 -134 -143 -148 -160 l-26 -31 641 0 641 0 0 160
0 160 -493 0 -492 0 -123 -129z"/>
<path d="M445 1098 c-44 -46 -116 -120 -160 -165 l-80 -83 648 0 647 0 0 165
0 165 -488 0 -487 0 -80 -82z"/>
<path d="M52 378 l3 -203 133 -3 132 -3 0 26 0 25 -105 0 -105 0 0 80 0 80
105 0 c98 0 105 1 105 20 0 19 -7 20 -105 20 l-105 0 0 60 0 60 105 0 c98 0
105 1 105 20 0 19 -7 20 -135 20 l-135 0 2 -202z"/>
<path d="M1490 560 c0 -18 7 -20 75 -20 l75 0 0 -185 0 -185 25 0 25 0 0 185
0 185 75 0 c68 0 75 2 75 20 0 19 -7 20 -175 20 -168 0 -175 -1 -175 -20z"/>
<path d="M1065 480 c-99 -41 -113 -235 -21 -295 38 -25 119 -24 154 1 61 45
82 161 44 234 -30 57 -115 86 -177 60z m90 -42 c36 -16 55 -57 55 -117 0 -66
-35 -111 -86 -111 -109 0 -129 195 -24 233 23 8 27 8 55 -5z"/>
<path d="M2103 483 c-29 -4 -33 -8 -33 -33 0 -28 2 -29 26 -20 33 13 110 13
135 0 11 -6 19 -21 19 -35 0 -23 -3 -25 -52 -25 -69 -1 -135 -30 -149 -67 -14
-39 -3 -85 27 -114 31 -29 92 -31 142 -5 28 14 32 15 32 1 0 -9 9 -15 25 -15
l25 0 0 128 c0 145 -7 165 -68 182 -37 10 -67 11 -129 3z m147 -192 c0 -46 -2
-50 -34 -65 -46 -22 -82 -20 -106 4 -52 52 1 97 128 109 8 1 12 -15 12 -48z"/>
<path d="M2488 469 c-32 -16 -38 -17 -38 -4 0 9 -9 15 -25 15 l-25 0 0 -155 0
-155 25 0 25 0 0 118 0 118 29 17 c16 9 45 17 64 17 57 0 67 -24 67 -157 l0
-113 25 0 25 0 0 115 c0 78 -5 127 -15 150 -23 57 -89 71 -157 34z"/>
<path d="M2804 476 c-96 -43 -80 -141 28 -166 91 -21 118 -49 80 -83 -25 -23
-89 -22 -135 2 l-38 19 3 -31 c3 -36 23 -44 106 -46 62 -1 103 17 120 54 28
62 -3 106 -87 124 -68 14 -91 27 -91 50 0 45 83 61 148 27 32 -16 32 -16 32 8
0 15 -8 30 -20 36 -34 18 -112 22 -146 6z"/>
<path d="M410 345 c5 -122 7 -137 27 -156 27 -28 99 -30 137 -6 31 21 36 21
36 2 0 -9 9 -15 25 -15 l25 0 0 155 0 155 -25 0 -25 0 0 -115 0 -115 -32 -20
c-39 -24 -81 -26 -102 -5 -21 22 -28 68 -24 168 3 87 3 87 -22 87 l-25 0 5
-135z"/>
<path d="M760 325 l0 -155 25 0 25 0 0 110 0 110 33 20 c17 11 49 20 70 20 33
0 37 3 37 25 0 22 -4 25 -32 25 -18 0 -48 -9 -66 -20 -40 -25 -42 -25 -42 0 0
15 -7 20 -25 20 l-25 0 0 -155z"/>
<path d="M1832 328 c3 -150 3 -153 26 -156 22 -3 22 -2 22 107 l0 111 33 20
c17 11 49 20 70 20 33 0 37 3 37 25 0 22 -4 25 -32 25 -18 0 -48 -9 -66 -20
-40 -25 -42 -25 -42 0 0 15 -7 20 -25 20 l-26 0 3 -152z"/>
</g>
</svg>
