<svg width="50" height="50" viewBox="0 0 50 50" fill="none" xmlns="http://www.w3.org/2000/svg">
<path d="M47.7273 36.3636H2.27273C1.66996 36.3636 1.09189 36.6031 0.665666 37.0293C0.239447 37.4555 0 38.0336 0 38.6364C0 39.2391 0.239447 39.8172 0.665666 40.2434C1.09189 40.6696 1.66996 40.9091 2.27273 40.9091H47.7273C48.33 40.9091 48.9081 40.6696 49.3343 40.2434C49.7606 39.8172 50 39.2391 50 38.6364C50 38.0336 49.7606 37.4555 49.3343 37.0293C48.9081 36.6031 48.33 36.3636 47.7273 36.3636ZM47.7273 45.4545H2.27273C1.66996 45.4545 1.09189 45.694 0.665666 46.1202C0.239447 46.5464 0 47.1245 0 47.7273C0 48.33 0.239447 48.9081 0.665666 49.3343C1.09189 49.7606 1.66996 50 2.27273 50H47.7273C48.33 50 48.9081 49.7606 49.3343 49.3343C49.7606 48.9081 50 48.33 50 47.7273C50 47.1245 49.7606 46.5464 49.3343 46.1202C48.9081 45.694 48.33 45.4545 47.7273 45.4545ZM11.3636 13.6364C10.9141 13.6364 10.4747 13.7697 10.101 14.0194C9.72723 14.2691 9.43593 14.6241 9.26391 15.0394C9.09189 15.4546 9.04689 15.9116 9.13458 16.3525C9.22227 16.7933 9.43873 17.1983 9.75658 17.5162C10.0744 17.834 10.4794 18.0505 10.9202 18.1381C11.3611 18.2258 11.8181 18.1808 12.2334 18.0088C12.6487 17.8368 13.0036 17.5455 13.2533 17.1718C13.5031 16.798 13.6364 16.3586 13.6364 15.9091C13.6364 15.3063 13.3969 14.7282 12.9707 14.302C12.5445 13.8758 11.9664 13.6364 11.3636 13.6364ZM43.1818 0H6.81818C5.00989 0 3.27566 0.718342 1.997 1.997C0.718342 3.27566 0 5.00989 0 6.81818V25C0 26.8083 0.718342 28.5425 1.997 29.8212C3.27566 31.0998 5.00989 31.8182 6.81818 31.8182H43.1818C44.9901 31.8182 46.7243 31.0998 48.003 29.8212C49.2817 28.5425 50 26.8083 50 25V6.81818C50 5.00989 49.2817 3.27566 48.003 1.997C46.7243 0.718342 44.9901 0 43.1818 0ZM45.4545 25C45.4545 25.6028 45.2151 26.1808 44.7889 26.6071C44.3627 27.0333 43.7846 27.2727 43.1818 27.2727H6.81818C6.21542 27.2727 5.63734 27.0333 5.21112 26.6071C4.7849 26.1808 4.54545 25.6028 4.54545 25V6.81818C4.54545 6.21542 4.7849 5.63734 5.21112 5.21112C5.63734 4.7849 6.21542 4.54545 6.81818 4.54545H43.1818C43.7846 4.54545 44.3627 4.7849 44.7889 5.21112C45.2151 5.63734 45.4545 6.21542 45.4545 6.81818V25ZM25 9.09091C23.6515 9.09091 22.3333 9.49079 21.212 10.24C20.0908 10.9892 19.2169 12.054 18.7008 13.2999C18.1848 14.5457 18.0497 15.9167 18.3128 17.2393C18.5759 18.5618 19.2253 19.7767 20.1788 20.7303C21.1324 21.6838 22.3472 22.3332 23.6698 22.5963C24.9924 22.8593 26.3633 22.7243 27.6092 22.2083C28.8551 21.6922 29.9199 20.8183 30.6691 19.6971C31.4183 18.5758 31.8182 17.2576 31.8182 15.9091C31.8182 14.1008 31.0998 12.3666 29.8212 11.0879C28.5425 9.80925 26.8083 9.09091 25 9.09091ZM25 18.1818C24.5505 18.1818 24.1111 18.0485 23.7373 17.7988C23.3636 17.5491 23.0723 17.1941 22.9003 16.7788C22.7283 16.3635 22.6832 15.9066 22.7709 15.4657C22.8586 15.0248 23.0751 14.6199 23.3929 14.302C23.7108 13.9842 24.1157 13.7677 24.5566 13.68C24.9975 13.5923 25.4544 13.6373 25.8697 13.8094C26.285 13.9814 26.64 14.2727 26.8897 14.6464C27.1394 15.0202 27.2727 15.4596 27.2727 15.9091C27.2727 16.5119 27.0333 17.0899 26.6071 17.5162C26.1808 17.9424 25.6028 18.1818 25 18.1818ZM38.6364 13.6364C38.1869 13.6364 37.7475 13.7697 37.3737 14.0194C37 14.2691 36.7087 14.6241 36.5366 15.0394C36.3646 15.4546 36.3196 15.9116 36.4073 16.3525C36.495 16.7933 36.7115 17.1983 37.0293 17.5162C37.3471 17.834 37.7521 18.0505 38.193 18.1381C38.6338 18.2258 39.0908 18.1808 39.5061 18.0088C39.9214 17.8368 40.2763 17.5455 40.5261 17.1718C40.7758 16.798 40.9091 16.3586 40.9091 15.9091C40.9091 15.3063 40.6696 14.7282 40.2434 14.302C39.8172 13.8758 39.2391 13.6364 38.6364 13.6364Z" fill="white"/>
</svg>
