<svg width="51" height="51" viewBox="0 0 51 51" fill="none" xmlns="http://www.w3.org/2000/svg">
<path d="M50 25.7272C50 11.9789 38.75 0.730225 25 0.730225C11.25 0.730225 0 11.9789 0 25.7272C0 39.4756 11.25 50.7243 25 50.7243C27.6562 50.7243 30.3125 50.2556 32.9688 49.4744C38.75 52.4428 45.7812 50.2556 48.75 44.475C50.4688 41.0379 50.4688 37.1321 48.75 33.695C49.5312 31.0391 50 28.3832 50 25.7272ZM38.2812 49.162C32.6562 49.162 28.125 44.6312 28.125 39.0069C28.125 33.3826 32.6562 28.8519 38.2812 28.8519C43.9062 28.8519 48.4375 33.3826 48.4375 39.0069C48.4375 44.6312 43.9062 49.162 38.2812 49.162ZM27.8125 44.3188C27.1875 44.475 26.4062 44.475 25.7812 44.475V42.1315C25.7812 41.6628 25.4688 41.3504 25 41.3504C24.5312 41.3504 24.2188 41.6628 24.2188 42.1315V44.475C19.8438 44.3188 15.625 42.6002 12.3438 39.4756L13.9062 37.9133C14.2187 37.6008 14.2187 37.1321 13.9062 36.8197C13.5937 36.5072 13.125 36.5072 12.8125 36.8197L11.25 38.382C8.28125 35.1011 6.5625 30.8829 6.25 26.5084H8.59375C9.0625 26.5084 9.375 26.1959 9.375 25.7272C9.375 25.2586 9.0625 24.9461 8.59375 24.9461H6.25C6.40625 20.5716 8.125 16.3534 11.25 13.0725L12.8125 14.6348C13.125 14.9473 13.5937 14.9473 13.9062 14.6348C14.2187 14.3224 14.2187 13.8537 13.9062 13.5412L12.3438 11.9789C15.625 9.01049 19.8438 7.29194 24.2188 6.97948V9.32295C24.2188 9.79165 24.5312 10.1041 25 10.1041C25.4688 10.1041 25.7812 9.79165 25.7812 9.32295V6.97948C30.1562 7.13571 34.375 8.85426 37.6562 11.9789L36.0938 13.5412C35.7812 13.8537 35.7812 14.3224 36.0938 14.6348C36.4062 14.9473 36.875 14.9473 37.1875 14.6348L38.75 13.0725C41.7188 16.3534 43.4375 20.5716 43.75 24.9461H41.4062C40.9375 24.9461 40.625 25.2586 40.625 25.7272C40.625 26.1959 40.9375 26.5084 41.4062 26.5084H43.75C43.75 27.1333 43.5938 27.9145 43.5938 28.5394C37.8125 25.571 30.7812 27.9145 27.8125 33.695C26.0937 36.9759 26.0937 40.8817 27.8125 44.3188ZM47.6562 31.9765C46.875 31.0391 46.0938 30.1017 45 29.4768C45.1562 28.2269 45.3125 26.9771 45.3125 25.8835C45.3125 14.6348 36.25 5.5734 25 5.5734C19.6875 5.5734 14.375 7.76064 10.625 11.5102C2.65625 19.478 2.65625 32.289 10.625 40.2568C14.375 43.8501 19.6875 46.0373 25 46.0373C26.25 46.0373 27.5 45.8811 28.5937 45.7249C29.2187 46.6623 30.1562 47.5996 31.0938 48.3808C29.0625 49.0057 27.0312 49.162 24.8438 49.162C12.0312 49.162 1.5625 38.6945 1.5625 25.7272C1.5625 12.76 12.0312 2.29254 25 2.29254C37.9688 2.29254 48.4375 12.76 48.4375 25.7272C48.4375 27.7583 48.125 29.9455 47.6562 31.9765ZM32.8125 25.7272C32.8125 25.2586 32.5 24.9461 32.0312 24.9461H27.1875C26.875 24.3212 26.4062 23.6962 25.7812 23.54V14.0099C25.7812 13.5412 25.4688 13.2287 25 13.2287C24.5312 13.2287 24.2188 13.5412 24.2188 14.0099V23.54C22.9688 24.0087 22.3438 25.2586 22.8125 26.5084C23.2812 27.7583 24.5312 28.3832 25.7812 27.9145C26.4062 27.602 27.0312 27.1333 27.1875 26.5084H32.0312C32.5 26.5084 32.8125 26.1959 32.8125 25.7272ZM25 26.5084C24.5312 26.5084 24.2188 26.1959 24.2188 25.7272C24.2188 25.2586 24.5312 24.9461 25 24.9461C25.4688 24.9461 25.7812 25.2586 25.7812 25.7272C25.7812 26.1959 25.4688 26.5084 25 26.5084ZM35.9375 37.7571V38.2258H33.5938C33.125 38.2258 32.8125 38.5382 32.8125 39.0069V42.1315C32.8125 42.6002 33.125 42.9127 33.5938 42.9127H36.7188C37.1875 42.9127 37.5 42.6002 37.5 42.1315C37.5 41.6628 37.1875 41.3504 36.7188 41.3504H34.375V39.7881H36.7188C37.1875 39.7881 37.5 39.4756 37.5 39.0069V35.8823C37.5 35.4136 37.1875 35.1011 36.7188 35.1011H33.5938C33.125 35.1011 32.8125 35.4136 32.8125 35.8823C32.8125 36.351 33.125 36.6634 33.5938 36.6634H35.9375V36.9759V37.7571ZM42.9688 36.6634C42.5 36.6634 42.1875 36.9759 42.1875 37.4446V38.2258H40.625V35.8823C40.625 35.4136 40.3125 35.1011 39.8438 35.1011C39.375 35.1011 39.0625 35.4136 39.0625 35.8823V39.0069C39.0625 39.4756 39.375 39.7881 39.8438 39.7881H42.1875V42.1315C42.1875 42.6002 42.5 42.9127 42.9688 42.9127C43.4375 42.9127 43.75 42.6002 43.75 42.1315V37.4446C43.75 36.9759 43.4375 36.6634 42.9688 36.6634Z" fill="white"/>
</svg>
