<svg width="65" height="54" viewBox="0 0 65 54" fill="none" xmlns="http://www.w3.org/2000/svg">
<path d="M43.6667 1.69043H2V37.7972H43.6667V1.69043Z" stroke="#FCF7F7" stroke-width="3" stroke-linecap="round" stroke-linejoin="round"/>
<path d="M43.667 15.5781H54.7781L63.1114 23.9105V37.7977H43.667V15.5781Z" stroke="#FCF7F7" stroke-width="3" stroke-linecap="round" stroke-linejoin="round"/>
<path d="M14.5001 51.6841C18.3354 51.6841 21.4446 48.5753 21.4446 44.7405C21.4446 40.9056 18.3354 37.7969 14.5001 37.7969C10.6648 37.7969 7.55566 40.9056 7.55566 44.7405C7.55566 48.5753 10.6648 51.6841 14.5001 51.6841Z" stroke="#FCF7F7" stroke-width="3" stroke-linecap="round" stroke-linejoin="round"/>
<path d="M50.6114 51.6841C54.4467 51.6841 57.5559 48.5753 57.5559 44.7405C57.5559 40.9056 54.4467 37.7969 50.6114 37.7969C46.7761 37.7969 43.667 40.9056 43.667 44.7405C43.667 48.5753 46.7761 51.6841 50.6114 51.6841Z" stroke="#FCF7F7" stroke-width="3" stroke-linecap="round" stroke-linejoin="round"/>
</svg>
